# xmcd
#
# Track frame offsets:
#	192
#	1850
#	17922
#	35995
#	55072
#	72437
#	91050
#	107260
#	128537
#	145992
#	161077
#	180515
#
# Disc length: 2429 seconds
#
# Revision: 0
# Processed by: cddbd v1.4PL0 Copyright (c) Steve Scherf et al.
# Submitted via: EasyCDDAExtractor 5.0.2.1
#
DISCID=95097b0c
DTITLE=Proper Dos - We're At It Again
DYEAR=1995
DGENRE=Chicano Rap
TTITLE0=The Time Has Come
TTITLE1=Caught Up
TTITLE2=We're At It Again
TTITLE3=Fifty Pour
TTITLE4=Who's The Hardest Latin Rap Artist?
TTITLE5=Your'e No Good
TTITLE6=Geto Baseball
TTITLE7=Sumthin Ta Bump
TTITLE8=Chavalas On Check
TTITLE9=One Deep
TTITLE10=I Done It!
TTITLE11=The Time Has Come II
EXTD=
EXTT0=
EXTT1=
EXTT2=
EXTT3=
EXTT4=
EXTT5=
EXTT6=
EXTT7=
EXTT8=
EXTT9=
EXTT10=
EXTT11=
PLAYORDER=
